<svg xmlns="http://www.w3.org/2000/svg" viewBox="0 0 22 22" width="22" height="22" fill="none">
    <g clip-path="url(#a)">
        <path fill="currentColor"
              d="M7.333 7.333H3.667V3.667h3.666v3.666Zm5.5-3.666H9.167v3.666h3.666V3.667Zm5.5 0h-3.666v3.666h3.666V3.667Zm-11 5.5H3.667v3.666h3.666V9.167Zm5.5 0H9.167v3.666h3.666V9.167Zm5.5 0h-3.666v3.666h3.666V9.167Zm-11 5.5H3.667v3.666h3.666v-3.666Zm5.5 0H9.167v3.666h3.666v-3.666Zm5.5 0h-3.666v3.666h3.666v-3.666Z"/>
    </g>
    <defs>
        <clipPath id="a">
            <path fill="#fff" d="M0 0h22v22H0z"/>
        </clipPath>
    </defs>
</svg>