<svg xmlns="http://www.w3.org/2000/svg" viewBox="0 0 22 22" width="22" height="22" fill="none">
    <g fill="currentColor" clip-path="url(#a)">
        <path d="M18.782 3.218c-4.291-4.29-11.273-4.29-15.564 0-4.29 4.291-4.29 11.273 0 15.564A10.97 10.97 0 0 0 11 22a10.97 10.97 0 0 0 7.782-3.218c4.29-4.291 4.29-11.273 0-15.564ZM4.33 17.67C.652 13.992.652 8.008 4.33 4.33A9.404 9.404 0 0 1 11 1.57c2.415 0 4.831.92 6.67 2.759 3.678 3.678 3.678 9.662 0 13.34-3.678 3.678-9.662 3.678-13.34 0Z"/>
        <path d="M17.016 10.214H4.984a.786.786 0 1 0 0 1.572h12.032a.786.786 0 1 0 0-1.572Z"/>
    </g>
    <defs>
        <clipPath id="a">
            <rect width="22" height="22" fill="#fff" rx="11"/>
        </clipPath>
    </defs>
</svg>