<svg xmlns="http://www.w3.org/2000/svg" width="101" height="57" fill="none"><g filter="url(#a)"><path fill="#C81D25" d="M64.913 44.656c-1.203.616-2.61 1.13-4.224 1.54-1.584.41-3.007.675-4.268.792a35.205 35.205 0 0 1-3.3.176c-3.168 0-6.41-.543-9.724-1.628-1.29-.41-3.461-1.232-6.512-2.464-7.627-3.05-12.936-4.87-15.928-5.456v-.44h.132c5.104 0 9.005-1.672 11.704-5.016 1.995-2.493 2.992-5.837 2.992-10.032 0-4.224-1.32-7.832-3.96-10.824-2.699-3.08-6.204-4.62-10.516-4.62-2.61 0-5.016.616-7.216 1.848-2.2 1.232-3.945 2.992-5.236 5.28-1.261 2.288-1.892 4.87-1.892 7.744 0 1.965.337 3.799 1.012 5.5s1.613 3.095 2.816 4.18c1.73 1.584 3.74 2.376 6.028 2.376 1.232 0 2.464-.279 3.696-.836 1.819-.821 3.036-2.2 3.652-4.136l.396.132c-.557 2.112-1.701 3.74-3.432 4.884-1.29.85-2.86 1.276-4.708 1.276-.587 0-1.217-.044-1.892-.132-3.432-.499-6.116-1.965-8.052-4.4-1.936-2.464-2.904-5.324-2.904-8.58 0-3.256.777-6.13 2.332-8.624 1.584-2.523 3.71-4.459 6.38-5.808 2.699-1.35 5.647-2.024 8.844-2.024 3.55 0 6.703.748 9.46 2.244 2.757 1.496 4.87 3.49 6.336 5.984 1.496 2.464 2.244 5.177 2.244 8.14 0 2.435-.44 4.65-1.32 6.644-.85 1.965-1.965 3.579-3.344 4.84-2.757 2.523-5.867 4.019-9.328 4.488 2.376.47 6.057 1.437 11.044 2.904 4.987 1.496 7.495 2.244 7.524 2.244 4.224 1.173 8.287 1.76 12.188 1.76 2.23 0 4.43-.22 6.6-.66 3.11-.587 5.47-1.672 7.084-3.256l.176.22c-.792 1.261-2.42 2.508-4.884 3.74Zm-20.75-8.096c.763 0 1.408-.264 1.936-.792.558-.557.85-1.217.88-1.98V9.148c0-.704-.279-1.29-.836-1.76a2.871 2.871 0 0 0-1.98-.748h-.528l-.044-.44h12.892c.91 0 1.892-.088 2.948-.264 1.086-.176 1.848-.352 2.288-.528v5.544h-.44v-.792c0-.704-.25-1.305-.748-1.804a2.42 2.42 0 0 0-1.716-.792H49.84V21.16h7.436a2.2 2.2 0 0 0 1.496-.66c.41-.41.616-.924.616-1.54v-.616h.44v6.952h-.44v-.66c0-.587-.205-1.085-.616-1.496-.381-.41-.865-.63-1.452-.66h-7.48v13.156h6.292c2.17 0 3.828-.484 4.972-1.452 1.144-.968 2.097-2.405 2.86-4.312h.44L61.851 37h-18.26v-.44h.572Zm24.965 0c.763 0 1.408-.264 1.936-.792.557-.557.85-1.217.88-1.98V9.412a2.717 2.717 0 0 0-.88-1.936 2.565 2.565 0 0 0-1.936-.836h-.572V6.2h9.636v.44h-.572c-1.056 0-1.863.455-2.42 1.364-.264.44-.396.91-.396 1.408v26.224h6.292c2.17 0 3.828-.484 4.972-1.452 1.144-.968 2.097-2.405 2.86-4.312h.44L86.816 37h-18.26v-.44h.572Z"/></g><defs><filter id="a" width="99.791" height="55.8" x=".577" y=".364" color-interpolation-filters="sRGB" filterUnits="userSpaceOnUse"><feFlood flood-opacity="0" result="BackgroundImageFix"/><feColorMatrix in="SourceAlpha" result="hardAlpha" values="0 0 0 0 0 0 0 0 0 0 0 0 0 0 0 0 0 0 127 0"/><feOffset dx="4" dy="2"/><feGaussianBlur stdDeviation="3.5"/><feComposite in2="hardAlpha" operator="out"/><feColorMatrix values="0 0 0 0 0.180392 0 0 0 0 0.52549 0 0 0 0 0.670588 0 0 0 0.85 0"/><feBlend in2="BackgroundImageFix" result="effect1_dropShadow_230_444"/><feBlend in="SourceGraphic" in2="effect1_dropShadow_230_444" result="shape"/></filter></defs></svg>