<svg xmlns="http://www.w3.org/2000/svg" viewBox="0 0 122 60" width="122" height="60" fill="none">
    <path fill="currentColor"
          d="M86.893 55.788c-1.694.868-3.678 1.591-5.952 2.17-2.232.579-4.236.95-6.014 1.116-1.736.165-3.286.248-4.65.248-4.464 0-9.03-.765-13.702-2.294-1.818-.579-4.877-1.736-9.176-3.472-10.746-4.299-18.228-6.861-22.444-7.688v-.62h.186c7.192 0 12.69-2.356 16.492-7.068 2.811-3.513 4.216-8.225 4.216-14.136 0-5.952-1.86-11.036-5.58-15.252-3.802-4.34-8.742-6.51-14.818-6.51-3.678 0-7.068.868-10.168 2.604-3.1 1.736-5.559 4.216-7.378 7.44C6.128 15.55 5.24 19.187 5.24 23.238c0 2.77.476 5.353 1.426 7.75.951 2.397 2.274 4.36 3.968 5.89 2.44 2.232 5.27 3.348 8.494 3.348 1.736 0 3.472-.393 5.208-1.178 2.563-1.157 4.278-3.1 5.146-5.828l.558.186c-.785 2.976-2.397 5.27-4.836 6.882-1.818 1.199-4.03 1.798-6.634 1.798-.826 0-1.715-.062-2.666-.186-4.836-.703-8.618-2.77-11.346-6.2C1.83 32.228.465 28.198.465 23.61s1.096-8.639 3.286-12.152c2.232-3.555 5.23-6.283 8.99-8.184C16.544 1.373 20.698.422 25.203.422c5.002 0 9.445 1.054 13.33 3.162 3.886 2.108 6.862 4.919 8.928 8.432 2.108 3.472 3.162 7.295 3.162 11.47 0 3.43-.62 6.551-1.86 9.362-1.198 2.77-2.769 5.043-4.712 6.82-3.885 3.555-8.266 5.663-13.144 6.324 3.348.661 8.536 2.025 15.562 4.092 7.027 2.108 10.561 3.162 10.602 3.162 5.952 1.653 11.677 2.48 17.174 2.48 3.142 0 6.242-.31 9.3-.93 4.382-.827 7.71-2.356 9.982-4.588l.248.31c-1.116 1.777-3.41 3.534-6.882 5.27ZM57.655 44.38c1.075 0 1.984-.372 2.728-1.116.785-.785 1.199-1.715 1.24-2.79V5.754c0-.992-.393-1.819-1.178-2.48-.785-.703-1.715-1.054-2.79-1.054h-.744l-.062-.62h18.166c1.281 0 2.666-.124 4.154-.372C80.7.98 81.773.732 82.393.484v7.812h-.62V7.18c0-.992-.351-1.84-1.054-2.542-.661-.703-1.467-1.075-2.418-1.116H65.653V22.68h10.478a3.101 3.101 0 0 0 2.108-.93c.579-.579.868-1.302.868-2.17v-.868h.62v9.796h-.62v-.93c0-.827-.29-1.53-.868-2.108-.537-.579-1.22-.889-2.046-.93h-10.54v18.538h8.866c3.059 0 5.394-.682 7.006-2.046 1.612-1.364 2.955-3.39 4.03-6.076h.62L82.58 45H56.85v-.62h.806Zm35.178 0c1.075 0 1.984-.372 2.728-1.116.785-.785 1.198-1.715 1.24-2.79V6.126c-.041-1.075-.455-1.984-1.24-2.728-.744-.785-1.654-1.178-2.728-1.178h-.806V1.6h13.578v.62h-.806c-1.488 0-2.625.64-3.41 1.922a3.792 3.792 0 0 0-.558 1.984v36.952h8.866c3.059 0 5.394-.682 7.006-2.046 1.612-1.364 2.955-3.39 4.03-6.076h.62L117.757 45h-25.73v-.62h.806Z"/>
</svg>