<svg xmlns="http://www.w3.org/2000/svg" viewBox="0 0 20 20" width="20" height="20" fill="none">
    <g clip-path="url(#a)">
        <path fill="currentColor"
              d="m19.748 18.567-5.738-5.742a7.752 7.752 0 0 0 1.811-4.984c0-4.32-3.545-7.833-7.906-7.833S0 3.525 0 7.845s3.545 7.833 7.907 7.833a7.928 7.928 0 0 0 4.91-1.697l5.759 5.759a.807.807 0 0 0 1.172 0 .807.807 0 0 0 0-1.172ZM1.68 7.845c0-3.394 2.796-6.152 6.227-6.152 3.43 0 6.226 2.758 6.226 6.152s-2.796 6.152-6.226 6.152c-3.431 0-6.226-2.762-6.226-6.152Z"/>
    </g>
    <defs>
        <clipPath id="a">
            <path fill="#fff" d="M0 0h20v20H0z"/>
        </clipPath>
    </defs>
</svg>