<svg xmlns="http://www.w3.org/2000/svg" viewBox="0 0 15 15" width="15" height="15" fill="none">
    <path fill="currentColor"
          d="M12.614 1.779H9.84L9.558.436A.549.549 0 0 0 9.021 0H5.979a.549.549 0 0 0-.537.436L5.16 1.779H2.387a.549.549 0 0 0-.55.549v1.778c0 .303.247.55.55.55H2.9v9.795c0 .303.245.549.549.549h8.103a.549.549 0 0 0 .548-.549V4.655h.513a.549.549 0 0 0 .55-.549V2.328a.549.549 0 0 0-.55-.55Zm-6.19-.681h2.152l.143.68H6.281l.143-.68Zm4.579 12.804H3.997V4.655h7.006v9.247Zm1.062-10.344h-9.13v-.682h9.13v.682Z"/>
    <path fill="currentColor"
          d="M7.5 12.672a.549.549 0 0 0 .549-.549V6.434a.549.549 0 0 0-1.098 0v5.69c0 .302.246.548.55.548ZM5.63 12.672a.549.549 0 0 0 .548-.549V6.434a.549.549 0 0 0-1.098 0v5.69c0 .302.246.548.55.548ZM9.37 12.672a.549.549 0 0 0 .55-.549V6.434a.549.549 0 0 0-1.098 0v5.69c0 .302.246.548.549.548Z"/>
</svg>