<svg xmlns="http://www.w3.org/2000/svg" viewBox="0 0 45 45" width="45" height="45" fill="none">
    <g fill="currentColor" clip-path="url(#a)">
        <path d="M33.307 13.789h-9.69a.699.699 0 1 0 0 1.397h9.69a.699.699 0 1 0 0-1.397ZM33.307 21.242h-9.69a.699.699 0 1 0 0 1.398h9.69a.699.699 0 1 0 0-1.398ZM33.307 28.696h-9.69a.699.699 0 1 0 0 1.397h9.69a.699.699 0 1 0 0-1.397ZM19.891 12.298H16.91a.699.699 0 0 0-.7.699v2.981c0 .386.314.699.7.699h2.981a.699.699 0 0 0 .699-.699v-2.981a.699.699 0 0 0-.699-.699Zm-.699 2.982h-1.584v-1.584h1.584v1.584ZM19.891 19.752H16.91a.699.699 0 0 0-.7.698v2.982c0 .386.314.698.7.698h2.981a.699.699 0 0 0 .699-.698V20.45a.699.699 0 0 0-.699-.698Zm-.699 2.98h-1.584V21.15h1.584v1.584ZM19.891 27.205H16.91a.699.699 0 0 0-.7.699v2.981c0 .386.314.699.7.699h2.981a.699.699 0 0 0 .699-.699v-2.981a.699.699 0 0 0-.699-.699Zm-.699 2.981h-1.584v-1.584h1.584v1.584Z"/>
        <path d="m41.519 31.984.552.23-.553-.23-.322-.133.32.133c-1.272-.527-2.628-.386-3.783.354V11.693a.699.699 0 1 0-1.397 0v20.262a4.027 4.027 0 0 0-3.262.128c-1.64.79-2.701 2.514-2.701 4.392 0 .368.066.758.192 1.165H14.581a.7.7 0 0 1-.699-.699V4.705a.7.7 0 0 1 .699-.699h1.63V7.78c0 .385.313.698.699.698h2.981a.699.699 0 0 0 .699-.698V4.006h2.33V7.78c0 .385.312.698.698.698h2.981a.699.699 0 0 0 .699-.698V4.006h2.33V7.78c0 .385.312.698.698.698h2.981a.699.699 0 0 0 .699-.698V4.006h1.63a.7.7 0 0 1 .7.699v3.074a.699.699 0 1 0 1.397 0V4.705c0-1.156-.94-2.096-2.097-2.096h-1.63V.699A.699.699 0 0 0 33.307 0h-2.981a.699.699 0 0 0-.699.699v1.91h-2.33V.699A.699.699 0 0 0 26.6 0h-2.981a.699.699 0 0 0-.699.699v1.91h-2.33V.699A.699.699 0 0 0 19.892 0H16.91a.699.699 0 0 0-.699.699v1.91h-1.63c-1.156 0-2.097.94-2.097 2.096v32.236c0 1.156.94 2.096 2.097 2.096h16.623c1.724 2.898 5.624 5.71 5.796 5.833a.699.699 0 0 0 .813 0 31.165 31.165 0 0 0 3.25-2.747c2.241-2.186 3.378-4.087 3.378-5.648 0-1.962-1.174-3.766-2.922-4.49ZM31.025 3.307v-1.91h1.584v5.684h-1.584V3.307Zm-6.708 0v-1.91H25.9v5.684h-1.584V3.307Zm-6.708 0v-1.91h1.584v5.684h-1.584V3.307Zm19.8 40.124c-1.076-.824-4.009-3.196-5.177-5.417-.306-.583-.462-1.1-.462-1.539 0-1.345.75-2.574 1.91-3.132a2.718 2.718 0 0 1 2.465.06c.408.217.777.78 1.262.79.444.01.747-.48 1.1-.682.784-.448 1.612-.594 2.476-.236 1.232.51 2.06 1.797 2.06 3.2 0 2.228-3.747 5.526-5.633 6.956ZM41.196 31.85s-.001 0 0 0Z"/>
        <path d="M42.071 32.213c.01.004.009.004 0 0ZM7.22 0C5.3 0 3.72 1.477 3.555 3.354h-.9c-1.156 0-2.096.94-2.096 2.096v11.646a.699.699 0 1 0 1.397 0V5.45a.7.7 0 0 1 .699-.698h.885V24.922a.699.699 0 1 0 1.397 0v-7.127h4.566V37.64H4.937v-9.177a.699.699 0 1 0-1.397 0v9.876c0 .158.054.312.153.436l2.828 3.535v1.991a.699.699 0 1 0 1.398 0v-1.99l2.828-3.536a.7.7 0 0 0 .153-.436V3.68C10.9 1.65 9.25 0 7.22 0Zm0 40.947-1.527-1.91h3.055l-1.528 1.91Zm2.283-24.55H4.937V3.68A2.285 2.285 0 0 1 7.22 1.398 2.285 2.285 0 0 1 9.503 3.68v12.717Z"/>
    </g>
    <defs>
        <clipPath id="a">
            <path fill="#fff" d="M0 0h45v45H0z"/>
        </clipPath>
    </defs>
</svg>