<svg xmlns="http://www.w3.org/2000/svg" viewBox="0 0 22 22" width="22" height="22" fill="none">
    <path fill="currentColor"
          d="M19.64 2.295c-1.088-.829-2.288-1.25-3.568-1.25-1.614 0-3.357.69-5.072 2-1.715-1.31-3.458-2-5.072-2-1.28 0-2.48.421-3.567 1.25C.77 3.508-.024 5.04 0 6.845c.085 6.185 10.128 13.483 10.556 13.79l.443.32.443-.32c.428-.307 10.47-7.605 10.556-13.79.025-1.806-.769-3.337-2.36-4.55ZM15.566 15.08A46.49 46.49 0 0 1 11 19.072a46.474 46.474 0 0 1-4.567-3.993c-3.185-3.203-4.885-6.058-4.915-8.255-.018-1.317.559-2.404 1.763-3.322.817-.623 1.708-.938 2.647-.938 1.777 0 3.474 1.106 4.585 2.035l.487.406.487-.406c1.11-.929 2.808-2.035 4.585-2.035.94 0 1.83.315 2.647.938 1.204.918 1.78 2.005 1.763 3.322-.03 2.197-1.73 5.052-4.915 8.255Z"/>
</svg>