<svg xmlns="http://www.w3.org/2000/svg" xmlns:xlink="http://www.w3.org/1999/xlink"><defs>
        <clipPath id="a">
            <path fill="currentColor" d="M0 0h45v45H0z"/>
        </clipPath>
    
        <clipPath id="a">
            <path fill="currentColor" d="M6 7h22v22H6z"/>
        </clipPath>
    
        <clipPath id="a">
            <path fill="#fff" d="M0 0h22v22H0z"/>
        </clipPath>
    
        <clipPath id="a">
            <rect width="22" height="22" fill="#fff" rx="11"/>
        </clipPath>
    
        <clipPath id="a">
            <path fill="#fff" d="M0 0h58v52.683H0z"/>
        </clipPath>
    
        <clipPath id="a">
            <path fill="#fff" d="M0 0h22v22H0z"/>
        </clipPath>
    
        <clipPath id="a">
            <path fill="#fff" d="M0 0h45v45H0z"/>
        </clipPath>
    
        <clipPath id="a">
            <path fill="#fff" d="M0 0h20v20H0z"/>
        </clipPath>
    
        <clipPath id="a">
            <path fill="#fff" d="M0 0h22v22H0z"/>
        </clipPath>
    
        <clipPath id="a">
            <path fill="#fff" d="M0 0h45v45H0z"/>
        </clipPath>
    </defs><symbol id="icon-arrow" viewBox="0 0 17 16"><g fill="none">
    <path fill="currentColor" d="m6.836 12.99 5.277-4.983a.45.45 0 0 0 .145-.327.45.45 0 0 0-.144-.328L6.836 2.367a.498.498 0 0 0-.664 0 .43.43 0 0 0-.138.313c0 .117.05.23.138.313l4.963 4.687-4.963 4.685a.43.43 0 0 0-.138.313c0 .117.05.229.138.313a.497.497 0 0 0 .664 0Z"/>
</g></symbol><symbol id="icon-chat" viewBox="0 0 45 45"><g fill="none">
    <g fill="currentColor" clip-path="url(#a)">
        <path d="M26.574 13.172a6.752 6.752 0 0 0-4.074 1.354 6.752 6.752 0 0 0-4.074-1.354 6.758 6.758 0 0 0-4.81 1.993 6.81 6.81 0 0 0 0 9.62l8.148 8.148a1.041 1.041 0 0 0 1.472 0l8.148-8.148a6.759 6.759 0 0 0 1.993-4.81 6.758 6.758 0 0 0-1.993-4.81 6.757 6.757 0 0 0-4.81-1.992Zm3.338 10.14L22.5 30.725l-7.411-7.411a4.726 4.726 0 0 1 0-6.676 4.69 4.69 0 0 1 3.337-1.382 4.69 4.69 0 0 1 3.338 1.382 1.041 1.041 0 0 0 1.473 0 4.69 4.69 0 0 1 3.337-1.382c1.261 0 2.446.49 3.338 1.382a4.69 4.69 0 0 1 1.382 3.338 4.69 4.69 0 0 1-1.382 3.338Z"/>
        <path d="M22.5 0C10.157 0 .115 10.042.115 22.385A22.385 22.385 0 0 0 5.127 36.5a13.425 13.425 0 0 1-4.498 5.843 1.04 1.04 0 0 0 .284 1.822c1.622.554 3.312.835 5.023.835a15.5 15.5 0 0 0 7.714-2.05 22.202 22.202 0 0 0 8.85 1.82c12.343 0 22.385-10.042 22.385-22.385C44.885 10.042 34.843 0 22.5 0Zm0 42.687c-2.96 0-5.814-.623-8.484-1.853a1.041 1.041 0 0 0-.986.061 13.414 13.414 0 0 1-7.095 2.022c-.84 0-1.675-.078-2.496-.233a15.463 15.463 0 0 0 3.858-6.046 1.04 1.04 0 0 0-.194-1.02 20.298 20.298 0 0 1-4.905-13.233c0-11.195 9.107-20.303 20.302-20.303s20.302 9.108 20.302 20.303S33.695 42.687 22.5 42.687Z"/>
    </g>
    
</g></symbol><symbol id="icon-delivery" viewBox="0 0 45 45"><g fill="none">
    <path fill="currentColor" d="M12.273 35.795a1.023 1.023 0 1 0 0-2.045 1.023 1.023 0 0 0 0 2.045ZM35.796 35.795a1.023 1.023 0 1 0 0-2.045 1.023 1.023 0 0 0 0 2.045Z"/>
    <path fill="currentColor" d="m43.773 24.136-3.069-2.25-2.965-8.897a.982.982 0 0 0-.92-.716h-9.205c-.614 0-1.023.409-1.023 1.023V33.75h-9.307c-.511-2.352-2.557-4.09-5.011-4.09-2.455 0-4.5 1.738-5.012 4.09H3.068c-.613 0-1.023-.41-1.023-1.023v-5.113h21.478c.613 0 1.023-.41 1.023-1.023 0-.614-.41-1.023-1.023-1.023h-22.5c-.614 0-1.023.41-1.023 1.023v6.136c0 1.739 1.33 3.068 3.068 3.068h4.193c.512 2.353 2.557 4.091 5.012 4.091 2.454 0 4.5-1.738 5.011-4.09h10.33c.613 0 1.022-.41 1.022-1.023V14.318h7.466l2.352 7.16H36.41l.307-.614c.204-.512 0-1.125-.41-1.33-.51-.204-1.124 0-1.329.41l-.818 1.533h-2.455c-.613 0-1.022.41-1.022 1.023 0 .614.409 1.023 1.022 1.023h7.875l2.966 2.25c.205.204.41.511.41.818v6.136c0 .614-.41 1.023-1.023 1.023h-1.125c-.512-2.352-2.557-4.09-5.012-4.09-2.863 0-5.113 2.25-5.113 5.113 0 2.863 2.25 5.113 5.113 5.113 2.455 0 4.5-1.738 5.012-4.09h1.125c1.738 0 3.068-1.33 3.068-3.069v-6.136a3.05 3.05 0 0 0-1.227-2.455Zm-31.5 13.705c-1.739 0-3.068-1.33-3.068-3.068 0-1.739 1.329-3.069 3.068-3.069 1.738 0 3.068 1.33 3.068 3.069 0 1.738-1.33 3.068-3.068 3.068Zm23.522 0c-1.738 0-3.068-1.33-3.068-3.068 0-1.739 1.33-3.069 3.069-3.069 1.738 0 3.068 1.33 3.068 3.069 0 1.738-1.33 3.068-3.069 3.068Z"/>
    <path fill="currentColor" d="M23.523 5.114H3.068c-.614 0-1.023.409-1.023 1.022V22.5c0 .614.41 1.023 1.023 1.023h20.455c.613 0 1.022-.41 1.022-1.023V6.136c0-.613-.409-1.022-1.022-1.022ZM15.34 7.159v3.17l-1.432-1.022c-.307-.205-.818-.205-1.125 0l-1.432 1.023V7.16h3.989Zm7.057 14.318H4.09V7.16h5.113v5.114c0 .409.205.716.512.92a.929.929 0 0 0 1.023 0l2.454-1.636 2.455 1.636c.204.103.409.205.613.205.205 0 .307 0 .512-.102.306-.205.51-.512.51-.921V7.159h5.114v14.318Z"/>
    <path fill="currentColor" d="M11.25 17.386H7.159c-.614 0-1.023.41-1.023 1.023 0 .614.41 1.023 1.023 1.023h4.09c.614 0 1.024-.41 1.024-1.023s-.41-1.023-1.023-1.023Z"/>
</g></symbol><symbol id="icon-email" viewBox="0 0 35 35"><g fill="none">
    <rect width="33" height="33" x="1" y="1" stroke="currentColor" stroke-width="2" rx="4"/>
    <g clip-path="url(#a)">
        <path fill="currentColor" d="M21.73 27.11a.865.865 0 0 1-.518 1.065c-1.597.611-3.09.825-5.034.825-5.247 0-9.862-3.761-9.862-9.957C6.316 12.595 10.995 7 18.14 7c5.562 0 9.545 3.825 9.545 9.135 0 4.615-2.592 7.523-6.006 7.523-1.486 0-2.56-.759-2.718-2.434h-.063c-.98 1.612-2.402 2.434-4.078 2.434-2.055 0-3.54-1.517-3.54-4.11 0-3.856 2.844-7.364 7.396-7.364.834 0 1.735.125 2.494.32a1.459 1.459 0 0 1 1.076 1.649l-.757 4.669c-.315 1.865-.094 2.718.79 2.75 1.36.032 3.067-1.707 3.067-5.342 0-4.11-2.655-7.302-7.555-7.302-4.836 0-9.071 3.793-9.071 9.83 0 5.28 3.381 8.282 8.091 8.282 1.226 0 2.507-.2 3.606-.589a1.02 1.02 0 0 1 1.314.66Zm-2.621-12.022a.304.304 0 0 0-.245-.343 3.761 3.761 0 0 0-.695-.064c-2.085 0-3.729 2.055-3.729 4.489 0 1.201.537 1.96 1.58 1.96 1.17 0 2.403-1.486 2.688-3.32l.4-2.722Z"/>
    </g>
    
</g></symbol><symbol id="icon-garbage-rounded" viewBox="0 0 38 38"><g fill="none">
    <circle cx="19" cy="19" r="18.5" stroke="currentColor"/>
    <path fill="currentColor" d="M26.5 10.609h-4.067l-.415-1.97A.805.805 0 0 0 21.232 8h-4.462c-.38 0-.709.267-.787.64l-.415 1.969H11.5a.805.805 0 0 0-.804.805v2.609c0 .444.36.805.804.805h.753v14.367c0 .445.36.805.805.805h11.884c.445 0 .805-.36.805-.805V14.828h.753c.444 0 .805-.36.805-.805v-2.61a.805.805 0 0 0-.805-.804Zm-9.078-1h3.156l.21 1h-3.576l.21-1Zm6.715 18.781H13.863V14.827h10.274V28.39Zm1.558-15.172h-13.39v-1h13.39v1Z"/>
    <path fill="currentColor" d="M19 26.586c.445 0 .805-.36.805-.805v-8.344a.805.805 0 0 0-1.61 0v8.344c0 .444.36.805.805.805ZM16.256 26.586c.445 0 .805-.36.805-.805v-8.344a.805.805 0 0 0-1.61 0v8.344c0 .444.36.805.805.805ZM21.744 26.586c.445 0 .805-.36.805-.805v-8.344a.805.805 0 0 0-1.61 0v8.344c0 .444.36.805.805.805Z"/>
</g></symbol><symbol id="icon-garbage-trash" viewBox="0 0 15 15"><g fill="none">
    <path fill="currentColor" d="M12.614 1.779H9.84L9.558.436A.549.549 0 0 0 9.021 0H5.979a.549.549 0 0 0-.537.436L5.16 1.779H2.387a.549.549 0 0 0-.55.549v1.778c0 .303.247.55.55.55H2.9v9.795c0 .303.245.549.549.549h8.103a.549.549 0 0 0 .548-.549V4.655h.513a.549.549 0 0 0 .55-.549V2.328a.549.549 0 0 0-.55-.55Zm-6.19-.681h2.152l.143.68H6.281l.143-.68Zm4.579 12.804H3.997V4.655h7.006v9.247Zm1.062-10.344h-9.13v-.682h9.13v.682Z"/>
    <path fill="currentColor" d="M7.5 12.672a.549.549 0 0 0 .549-.549V6.434a.549.549 0 0 0-1.098 0v5.69c0 .302.246.548.55.548ZM5.63 12.672a.549.549 0 0 0 .548-.549V6.434a.549.549 0 0 0-1.098 0v5.69c0 .302.246.548.55.548ZM9.37 12.672a.549.549 0 0 0 .55-.549V6.434a.549.549 0 0 0-1.098 0v5.69c0 .302.246.548.549.548Z"/>
</g></symbol><symbol id="icon-grid-4" viewBox="0 0 22 22"><g fill="none">
    <path fill="currentColor" d="M8.446 11.786c.977 0 1.768.791 1.768 1.768v4.321c0 .976-.791 1.768-1.768 1.768H4.125a1.768 1.768 0 0 1-1.768-1.768v-4.322c0-.976.792-1.767 1.768-1.767h4.321Zm9.429 0c.976 0 1.768.791 1.768 1.768v4.321c0 .976-.792 1.768-1.768 1.768h-4.321a1.768 1.768 0 0 1-1.768-1.768v-4.322c0-.976.791-1.767 1.768-1.767h4.321ZM8.446 2.357c.977 0 1.768.792 1.768 1.768v4.321c0 .977-.791 1.768-1.768 1.768H4.125a1.768 1.768 0 0 1-1.768-1.768V4.125c0-.976.792-1.768 1.768-1.768h4.321Zm9.429 0c.976 0 1.768.792 1.768 1.768v4.321c0 .977-.792 1.768-1.768 1.768h-4.321a1.768 1.768 0 0 1-1.768-1.768V4.125c0-.976.791-1.768 1.768-1.768h4.321Z"/>
</g></symbol><symbol id="icon-grid-9" viewBox="0 0 22 22"><g fill="none">
    <g clip-path="url(#a)">
        <path fill="currentColor" d="M7.333 7.333H3.667V3.667h3.666v3.666Zm5.5-3.666H9.167v3.666h3.666V3.667Zm5.5 0h-3.666v3.666h3.666V3.667Zm-11 5.5H3.667v3.666h3.666V9.167Zm5.5 0H9.167v3.666h3.666V9.167Zm5.5 0h-3.666v3.666h3.666V9.167Zm-11 5.5H3.667v3.666h3.666v-3.666Zm5.5 0H9.167v3.666h3.666v-3.666Zm5.5 0h-3.666v3.666h3.666v-3.666Z"/>
    </g>
    
</g></symbol><symbol id="icon-heart" viewBox="0 0 22 22"><g fill="none">
    <path fill="currentColor" d="M19.64 2.295c-1.088-.829-2.288-1.25-3.568-1.25-1.614 0-3.357.69-5.072 2-1.715-1.31-3.458-2-5.072-2-1.28 0-2.48.421-3.567 1.25C.77 3.508-.024 5.04 0 6.845c.085 6.185 10.128 13.483 10.556 13.79l.443.32.443-.32c.428-.307 10.47-7.605 10.556-13.79.025-1.806-.769-3.337-2.36-4.55ZM15.566 15.08A46.49 46.49 0 0 1 11 19.072a46.474 46.474 0 0 1-4.567-3.993c-3.185-3.203-4.885-6.058-4.915-8.255-.018-1.317.559-2.404 1.763-3.322.817-.623 1.708-.938 2.647-.938 1.777 0 3.474 1.106 4.585 2.035l.487.406.487-.406c1.11-.929 2.808-2.035 4.585-2.035.94 0 1.83.315 2.647.938 1.204.918 1.78 2.005 1.763 3.322-.03 2.197-1.73 5.052-4.915 8.255Z"/>
</g></symbol><symbol id="icon-law" viewBox="0 0 22 22"><g fill="none">
    <path fill="currentColor" fill-rule="evenodd" d="M11.687 2.52a.688.688 0 0 0-1.375 0v1.605h-1.81c-.321 0-.636.097-.902.278L6.046 5.46a.23.23 0 0 1-.13.039h-3.76a.687.687 0 0 0 0 1.375h1.446l-3.086 7.04a.699.699 0 0 0 .192.807c.074.058.148.114.284.202.17.111.414.255.726.397a6.337 6.337 0 0 0 2.636.569 6.34 6.34 0 0 0 2.636-.569c.312-.142.556-.286.726-.397.138-.089.211-.144.285-.204a.688.688 0 0 0 .191-.805l-3.087-7.04h.812c.322 0 .636-.097.902-.278L8.374 5.54a.23.23 0 0 1 .128-.039h1.81v13.292H6.2a.687.687 0 1 0 0 1.375H15.8a.687.687 0 1 0 0-1.375h-4.113V5.5h1.81c.046 0 .091.014.128.04l1.556 1.057c.266.18.58.278.902.278h.812l-3.087 7.04a.688.688 0 0 0 .21.821c.011.009 0 0 .002 0 .091.069.186.132.284.19.17.102.413.234.725.366a6.73 6.73 0 0 0 2.617.52 6.73 6.73 0 0 0 2.618-.521c.31-.131.553-.263.724-.366.098-.058.193-.12.284-.189a.688.688 0 0 0 .21-.821l-3.085-7.04h1.447a.687.687 0 0 0 0-1.375h-3.76a.229.229 0 0 1-.129-.04L14.4 4.404a1.604 1.604 0 0 0-.902-.278h-1.81V2.521ZM2.01 13.933a4.966 4.966 0 0 0 2.344.582 4.966 4.966 0 0 0 2.344-.582L4.354 8.587 2.01 13.932Zm13.3-.023c.076.037.16.077.253.116a5.367 5.367 0 0 0 2.083.412 5.358 5.358 0 0 0 2.334-.527l-2.334-5.324-2.335 5.323Z" clip-rule="evenodd"/>
</g></symbol><symbol id="icon-logo-small" viewBox="0 0 87 43"><g fill="none">
    <path fill="currentColor" d="M61.913 39.656c-1.203.616-2.61 1.13-4.224 1.54-1.584.41-3.007.675-4.268.792a35.205 35.205 0 0 1-3.3.176c-3.168 0-6.41-.543-9.724-1.628-1.29-.41-3.461-1.232-6.512-2.464-7.627-3.05-12.936-4.87-15.928-5.456v-.44h.132c5.104 0 9.005-1.672 11.704-5.016 1.995-2.493 2.992-5.837 2.992-10.032 0-4.224-1.32-7.832-3.96-10.824-2.699-3.08-6.204-4.62-10.516-4.62-2.61 0-5.016.616-7.216 1.848-2.2 1.232-3.945 2.992-5.236 5.28-1.261 2.288-1.892 4.87-1.892 7.744 0 1.965.337 3.799 1.012 5.5s1.613 3.095 2.816 4.18c1.73 1.584 3.74 2.376 6.028 2.376 1.232 0 2.464-.279 3.696-.836 1.819-.821 3.036-2.2 3.652-4.136l.396.132c-.557 2.112-1.701 3.74-3.432 4.884-1.29.85-2.86 1.276-4.708 1.276-.587 0-1.217-.044-1.892-.132-3.432-.499-6.116-1.965-8.052-4.4C1.545 22.936.577 20.076.577 16.82c0-3.256.777-6.13 2.332-8.624 1.584-2.523 3.71-4.459 6.38-5.808 2.699-1.35 5.647-2.024 8.844-2.024 3.55 0 6.703.748 9.46 2.244 2.757 1.496 4.87 3.49 6.336 5.984 1.496 2.464 2.244 5.177 2.244 8.14 0 2.435-.44 4.65-1.32 6.644-.85 1.965-1.965 3.579-3.344 4.84-2.757 2.523-5.867 4.019-9.328 4.488 2.376.47 6.057 1.437 11.044 2.904 4.987 1.496 7.495 2.244 7.524 2.244 4.224 1.173 8.287 1.76 12.188 1.76 2.23 0 4.43-.22 6.6-.66 3.11-.587 5.47-1.672 7.084-3.256l.176.22c-.792 1.261-2.42 2.508-4.884 3.74Zm-20.75-8.096c.763 0 1.408-.264 1.936-.792.558-.557.85-1.217.88-1.98V4.148c0-.704-.279-1.29-.836-1.76a2.871 2.871 0 0 0-1.98-.748h-.528l-.044-.44h12.892c.91 0 1.892-.088 2.948-.264C57.517.76 58.28.584 58.72.408v5.544h-.44V5.16c0-.704-.25-1.305-.748-1.804a2.42 2.42 0 0 0-1.716-.792H46.84V16.16h7.436a2.2 2.2 0 0 0 1.496-.66c.41-.41.616-.924.616-1.54v-.616h.44v6.952h-.44v-.66c0-.587-.205-1.085-.616-1.496-.381-.41-.865-.63-1.452-.66h-7.48v13.156h6.292c2.17 0 3.828-.484 4.972-1.452 1.144-.968 2.097-2.405 2.86-4.312h.44L58.851 32h-18.26v-.44h.572Zm24.965 0c.763 0 1.408-.264 1.936-.792.557-.557.85-1.217.88-1.98V4.412a2.717 2.717 0 0 0-.88-1.936 2.565 2.565 0 0 0-1.936-.836h-.572V1.2h9.636v.44h-.572c-1.056 0-1.863.455-2.42 1.364-.264.44-.396.91-.396 1.408v26.224h6.292c2.17 0 3.828-.484 4.972-1.452 1.144-.968 2.097-2.405 2.86-4.312h.44L83.816 32h-18.26v-.44h.572Z"/>
</g></symbol><symbol id="icon-logo" viewBox="0 0 122 60"><g fill="none">
    <path fill="currentColor" d="M86.893 55.788c-1.694.868-3.678 1.591-5.952 2.17-2.232.579-4.236.95-6.014 1.116-1.736.165-3.286.248-4.65.248-4.464 0-9.03-.765-13.702-2.294-1.818-.579-4.877-1.736-9.176-3.472-10.746-4.299-18.228-6.861-22.444-7.688v-.62h.186c7.192 0 12.69-2.356 16.492-7.068 2.811-3.513 4.216-8.225 4.216-14.136 0-5.952-1.86-11.036-5.58-15.252-3.802-4.34-8.742-6.51-14.818-6.51-3.678 0-7.068.868-10.168 2.604-3.1 1.736-5.559 4.216-7.378 7.44C6.128 15.55 5.24 19.187 5.24 23.238c0 2.77.476 5.353 1.426 7.75.951 2.397 2.274 4.36 3.968 5.89 2.44 2.232 5.27 3.348 8.494 3.348 1.736 0 3.472-.393 5.208-1.178 2.563-1.157 4.278-3.1 5.146-5.828l.558.186c-.785 2.976-2.397 5.27-4.836 6.882-1.818 1.199-4.03 1.798-6.634 1.798-.826 0-1.715-.062-2.666-.186-4.836-.703-8.618-2.77-11.346-6.2C1.83 32.228.465 28.198.465 23.61s1.096-8.639 3.286-12.152c2.232-3.555 5.23-6.283 8.99-8.184C16.544 1.373 20.698.422 25.203.422c5.002 0 9.445 1.054 13.33 3.162 3.886 2.108 6.862 4.919 8.928 8.432 2.108 3.472 3.162 7.295 3.162 11.47 0 3.43-.62 6.551-1.86 9.362-1.198 2.77-2.769 5.043-4.712 6.82-3.885 3.555-8.266 5.663-13.144 6.324 3.348.661 8.536 2.025 15.562 4.092 7.027 2.108 10.561 3.162 10.602 3.162 5.952 1.653 11.677 2.48 17.174 2.48 3.142 0 6.242-.31 9.3-.93 4.382-.827 7.71-2.356 9.982-4.588l.248.31c-1.116 1.777-3.41 3.534-6.882 5.27ZM57.655 44.38c1.075 0 1.984-.372 2.728-1.116.785-.785 1.199-1.715 1.24-2.79V5.754c0-.992-.393-1.819-1.178-2.48-.785-.703-1.715-1.054-2.79-1.054h-.744l-.062-.62h18.166c1.281 0 2.666-.124 4.154-.372C80.7.98 81.773.732 82.393.484v7.812h-.62V7.18c0-.992-.351-1.84-1.054-2.542-.661-.703-1.467-1.075-2.418-1.116H65.653V22.68h10.478a3.101 3.101 0 0 0 2.108-.93c.579-.579.868-1.302.868-2.17v-.868h.62v9.796h-.62v-.93c0-.827-.29-1.53-.868-2.108-.537-.579-1.22-.889-2.046-.93h-10.54v18.538h8.866c3.059 0 5.394-.682 7.006-2.046 1.612-1.364 2.955-3.39 4.03-6.076h.62L82.58 45H56.85v-.62h.806Zm35.178 0c1.075 0 1.984-.372 2.728-1.116.785-.785 1.198-1.715 1.24-2.79V6.126c-.041-1.075-.455-1.984-1.24-2.728-.744-.785-1.654-1.178-2.728-1.178h-.806V1.6h13.578v.62h-.806c-1.488 0-2.625.64-3.41 1.922a3.792 3.792 0 0 0-.558 1.984v36.952h8.866c3.059 0 5.394-.682 7.006-2.046 1.612-1.364 2.955-3.39 4.03-6.076h.62L117.757 45h-25.73v-.62h.806Z"/>
</g></symbol><symbol id="icon-menu" viewBox="0 0 26 26"><g fill="none">
    <path fill="currentColor" d="M1.034 7.138a1.034 1.034 0 1 0 0-2.069 1.034 1.034 0 0 0 0 2.069ZM26 5.069H5.174v2.069H26V5.069ZM1.034 20.931a1.034 1.034 0 1 0 0-2.069 1.034 1.034 0 0 0 0 2.069ZM26 18.862H5.174v2.07H26v-2.07ZM1.034 14.034a1.034 1.034 0 1 0 0-2.068 1.034 1.034 0 0 0 0 2.069ZM26 11.966H5.174v2.069H26v-2.07Z"/>
</g></symbol><symbol id="icon-minus" viewBox="0 0 22 22"><g fill="none">
    <g fill="currentColor" clip-path="url(#a)">
        <path d="M18.782 3.218c-4.291-4.29-11.273-4.29-15.564 0-4.29 4.291-4.29 11.273 0 15.564A10.97 10.97 0 0 0 11 22a10.97 10.97 0 0 0 7.782-3.218c4.29-4.291 4.29-11.273 0-15.564ZM4.33 17.67C.652 13.992.652 8.008 4.33 4.33A9.404 9.404 0 0 1 11 1.57c2.415 0 4.831.92 6.67 2.759 3.678 3.678 3.678 9.662 0 13.34-3.678 3.678-9.662 3.678-13.34 0Z"/>
        <path d="M17.016 10.214H4.984a.786.786 0 1 0 0 1.572h12.032a.786.786 0 1 0 0-1.572Z"/>
    </g>
    
</g></symbol><symbol id="icon-photo" viewBox="0 0 58 53"><g fill="none">
    <g fill="currentColor" clip-path="url(#a)">
        <path d="m43.394 4.07-3.912-.241V3.23c0-.561-.501-1.016-1.119-1.016h-.75v-.945c0-.454-.406-.821-.905-.821-.5 0-.904.367-.904.82v.946h-.751c-.618 0-1.119.455-1.119 1.016v3.372c.883-.001 1.774.246 2.538.76 1.07.717 1.663 1.803 1.725 2.922h.166c.618 0 1.119-.454 1.119-1.016V8.67l3.912-.241c.59-.036 1.047-.481 1.047-1.018V5.088c0-.537-.458-.982-1.047-1.018ZM27.368 8.59c2.611 0 4.728-1.922 4.728-4.295C32.096 1.923 29.98 0 27.368 0c-2.612 0-4.73 1.923-4.73 4.295 0 2.373 2.118 4.296 4.73 4.296ZM35.3 8.8c-1.02-.686-2.459-.49-3.213.437l-4.94 6.068-3.767-2.531 2.64.907 2.105-2.586a3.704 3.704 0 0 0-1.406-.39l-6.15-.459c-1.906-.142-3.577 1.145-3.733 2.876l-1.093 16.1 1.45 8.585-3.535 11.708c-.402 1.335.462 2.713 1.93 3.079 1.47.365 2.987-.42 3.39-1.754l3.689-12.222c.102-.34.125-.695.066-1.043l-1.34-7.93 1.074.08 3.29 8.147-2.748 11.787c-.316 1.353.636 2.683 2.126 2.97 1.49.286 2.954-.579 3.27-1.932l2.912-12.492c.107-.461.07-.94-.11-1.382l-2.76-6.838.7-7.74c-1.381.575-3.058.253-4.056-.904l-4.444-5.21 5.615 3.772c1.016.682 2.457.493 3.215-.438l6.305-7.746c.755-.927.54-2.234-.481-2.92Z"/>
    </g>
    
</g></symbol><symbol id="icon-plus" viewBox="0 0 22 22"><g fill="none">
    <g fill="currentColor" clip-path="url(#a)">
        <path d="M18.782 18.782c4.29-4.29 4.29-11.274 0-15.564-4.29-4.29-11.274-4.29-15.564 0-4.29 4.29-4.29 11.274 0 15.564 4.29 4.29 11.274 4.29 15.564 0ZM3.994 3.994C7.858.13 14.142.13 18.006 3.994c3.864 3.864 3.864 10.148 0 14.012-3.864 3.864-10.148 3.864-14.012 0-3.864-3.864-3.86-10.148 0-14.012Z"/>
        <path d="M11 15.12a.553.553 0 0 0 .552-.552v-3.02h3.02a.553.553 0 0 0 .552-.552.544.544 0 0 0-.547-.548h-3.02v-3.02a.544.544 0 0 0-.548-.548.544.544 0 0 0-.548.548v3.02h-3.02a.544.544 0 0 0-.548.547c0 .306.247.553.548.548h3.02v3.02a.533.533 0 0 0 .539.557Z"/>
    </g>
    
</g></symbol><symbol id="icon-quality-medal" viewBox="0 0 45 45"><g fill="none">
    <g fill="currentColor" clip-path="url(#a)">
        <path d="m43.036 37.78-8.626-8.625a.694.694 0 0 0-.108-.088l.006-.955 2.579-.361a.695.695 0 0 0 .572-.882l-.72-2.503 2.373-1.072a.696.696 0 0 0 .301-1.007l-1.395-2.2 1.974-1.697a.696.696 0 0 0 .005-1.05l-1.958-1.717 1.416-2.186a.696.696 0 0 0-.291-1.01L36.8 11.332l.743-2.496a.696.696 0 0 0-.564-.887l-2.575-.385.01-2.604a.696.696 0 0 0-.792-.692l-2.58.356-.724-2.501a.696.696 0 0 0-.953-.442L26.99 2.75 25.59.554A.697.697 0 0 0 24.551.4l-1.977 1.694L20.612.38a.696.696 0 0 0-1.04.145L18.15 2.708l-2.365-1.09a.696.696 0 0 0-.958.432l-.748 2.494-2.576-.38a.697.697 0 0 0-.797.684l-.015 2.605-2.58.36a.696.696 0 0 0-.571.882l.719 2.503-2.373 1.073a.696.696 0 0 0-.3 1.007l1.395 2.198-1.975 1.698a.696.696 0 0 0-.005 1.051l1.959 1.717-1.416 2.185a.696.696 0 0 0 .291 1.01L8.2 24.232l-.743 2.496a.696.696 0 0 0 .564.887l2.575.385-.004 1.17a.696.696 0 0 0-.09.074L8.46 31.285a.696.696 0 0 0 .984.985l1.266-1.267a.696.696 0 0 0 .666.293l2.58-.356.724 2.502a.696.696 0 0 0 .954.44l2.375-1.067.387.607-9.35 9.35-.385-4.04a.696.696 0 0 0-.627-.627l-4.04-.385 3.13-3.13a.696.696 0 0 0-.984-.985L1.964 37.78c-.408.408-.147 1.13.426 1.185l4.94.47.47 4.94c.055.572.776.834 1.185.426l10.177-10.178c.094.147.179.305.286.442a.703.703 0 0 0 1 .098l1.978-1.694 1.961 1.713a.704.704 0 0 0 1.046-.152c.11-.162.213-.328.32-.491l10.262 10.262c.408.408 1.13.146 1.185-.426l.47-4.94 4.94-.47c.573-.055.834-.777.426-1.185ZM26.01 31.593 24.7 33.607l-1.811-1.581a.695.695 0 0 0-.91-.004l-1.827 1.564-.113-.178a.693.693 0 0 0-.356-.56l-.823-1.29a.696.696 0 0 0-.872-.26l-2.193.986-.669-2.31a.696.696 0 0 0-.763-.495l-2.382.328.009-2.404a.696.696 0 0 0-.593-.69l-2.378-.357.686-2.304a.696.696 0 0 0-.374-.83l-2.181-1.011 1.307-2.018a.696.696 0 0 0-.125-.902l-1.808-1.584 1.823-1.568a.696.696 0 0 0 .133-.9l-1.288-2.03 2.19-.991a.696.696 0 0 0 .383-.827L9.1 9.081l2.38-.334a.696.696 0 0 0 .6-.685l.014-2.404 2.378.35a.696.696 0 0 0 .769-.488l.69-2.303 2.183 1.007a.696.696 0 0 0 .875-.252L20.3 1.957l1.811 1.58c.26.228.648.23.91.005l1.827-1.564 1.292 2.028a.696.696 0 0 0 .872.26l2.193-.986.669 2.31a.696.696 0 0 0 .764.495l2.381-.328-.009 2.404a.696.696 0 0 0 .593.69l2.378.357-.686 2.304a.696.696 0 0 0 .374.83l2.182 1.011-1.307 2.018a.696.696 0 0 0 .125.902l1.808 1.584-1.823 1.568a.696.696 0 0 0-.134.9l1.288 2.03-2.19.991a.696.696 0 0 0-.382.827l.664 2.31-2.381.334a.696.696 0 0 0-.6.685l-.013 2.404-2.379-.35a.697.697 0 0 0-.768.488l-.69 2.303-2.184-1.007a.696.696 0 0 0-.875.252Zm10.956 6.513a.696.696 0 0 0-.627.627l-.385 4.04-9.425-9.425.32-.491 2.364 1.09a.695.695 0 0 0 .959-.432l.747-2.494 2.576.38a.695.695 0 0 0 .751-.44l6.76 6.76-4.04.385Z"/>
        <path d="M22.5 3.724c-7.752 0-14.059 6.306-14.059 14.058S14.748 31.84 22.5 31.84c2.67 0 5.267-.751 7.512-2.173a14.099 14.099 0 0 0 5.09-5.649.696.696 0 0 0-1.246-.618A12.601 12.601 0 0 1 22.5 30.448c-6.985 0-12.667-5.682-12.667-12.666S15.515 5.116 22.5 5.116c6.984 0 12.666 5.682 12.666 12.666 0 .825-.08 1.65-.237 2.452a.696.696 0 1 0 1.366.268c.174-.89.263-1.805.263-2.72 0-7.752-6.306-14.058-14.058-14.058Z"/>
        <path d="M32.918 15.718 29.02 9.779a.695.695 0 0 0-.581-.314H16.56a.696.696 0 0 0-.582.314l-3.897 5.939a.696.696 0 0 0 .05.83l9.835 11.692a.696.696 0 0 0 1.065 0l9.837-11.692a.696.696 0 0 0 .049-.83Zm-4.407-4.179 2.414 3.68h-4.313l1.899-3.68Zm-1.214-.682-1.838 3.56-1.898-3.56h3.736Zm-2.988 4.361H20.69l1.81-3.393 1.81 3.393Zm-2.87-4.361-1.909 3.578-1.908-3.578h3.817Zm-4.994.75 1.926 3.611h-4.296l2.37-3.611Zm-2.442 5.003h4.99l2.262 8.62-7.252-8.62Zm8.497 7.882-2.067-7.882h4.134L22.5 24.492Zm1.245.739 2.261-8.62h4.991l-7.252 8.62ZM44.306 4.089c-.473-.063-1.663-.326-2.513-1.41A3.814 3.814 0 0 1 41.01.643a.696.696 0 0 0-1.388 0 3.815 3.815 0 0 1-.782 2.036c-.85 1.084-2.04 1.347-2.513 1.41a.696.696 0 0 0 0 1.38c.472.063 1.663.326 2.513 1.41.604.77.75 1.606.782 2.036a.696.696 0 0 0 1.388 0c.033-.43.178-1.266.781-2.036.85-1.084 2.041-1.347 2.514-1.41a.696.696 0 0 0 0-1.38Zm-3.609 1.93c-.145.186-.27.372-.38.558a5.014 5.014 0 0 0-1.806-1.798 5.011 5.011 0 0 0 1.426-1.24v-.001c.144-.185.27-.371.38-.557a5.013 5.013 0 0 0 1.806 1.798 5.013 5.013 0 0 0-1.426 1.24ZM8.672 4.089C8.2 4.026 7.01 3.763 6.16 2.679A3.814 3.814 0 0 1 5.377.643a.696.696 0 0 0-1.388 0 3.815 3.815 0 0 1-.781 2.036C2.358 3.763 1.167 4.026.694 4.09a.696.696 0 0 0 0 1.38c.473.063 1.663.326 2.513 1.41.604.77.75 1.606.782 2.036a.696.696 0 0 0 1.388 0c.033-.43.178-1.266.782-2.036.85-1.084 2.04-1.347 2.513-1.41a.696.696 0 0 0 0-1.38Zm-3.609 1.93c-.144.186-.27.372-.38.558A5.01 5.01 0 0 0 2.877 4.78a5.012 5.012 0 0 0 1.806-1.798A5.013 5.013 0 0 0 6.49 4.779a5.015 5.015 0 0 0-1.426 1.24ZM26.49 39.165c-.473-.063-1.664-.326-2.514-1.41a3.814 3.814 0 0 1-.782-2.036.696.696 0 0 0-1.387 0 3.815 3.815 0 0 1-.782 2.036c-.85 1.084-2.041 1.347-2.513 1.41a.696.696 0 0 0 0 1.38c.472.063 1.663.326 2.513 1.41.604.77.749 1.606.782 2.036a.696.696 0 0 0 1.387 0c.033-.43.178-1.266.782-2.036.85-1.084 2.041-1.347 2.513-1.41a.696.696 0 0 0 0-1.38Zm-3.61 1.931c-.144.185-.27.371-.38.558a5.012 5.012 0 0 0-1.806-1.798 5.014 5.014 0 0 0 1.806-1.8 5.012 5.012 0 0 0 1.806 1.798 5.014 5.014 0 0 0-1.425 1.242Z"/>
    </g>
    
</g></symbol><symbol id="icon-search" viewBox="0 0 20 20"><g fill="none">
    <g clip-path="url(#a)">
        <path fill="currentColor" d="m19.748 18.567-5.738-5.742a7.752 7.752 0 0 0 1.811-4.984c0-4.32-3.545-7.833-7.906-7.833S0 3.525 0 7.845s3.545 7.833 7.907 7.833a7.928 7.928 0 0 0 4.91-1.697l5.759 5.759a.807.807 0 0 0 1.172 0 .807.807 0 0 0 0-1.172ZM1.68 7.845c0-3.394 2.796-6.152 6.227-6.152 3.43 0 6.226 2.758 6.226 6.152s-2.796 6.152-6.226 6.152c-3.431 0-6.226-2.762-6.226-6.152Z"/>
    </g>
    
</g></symbol><symbol id="icon-shopping-cart" viewBox="0 0 22 22"><g fill="none">
    <g clip-path="url(#a)">
        <path fill="currentColor" d="M6.605 14.485h12.122a2.5 2.5 0 0 0 2.495-2.495V6.835c0-.009 0-.018-.004-.027 0-.01-.005-.023-.005-.032 0-.009-.004-.018-.004-.027-.005-.009-.005-.018-.01-.032-.004-.009-.004-.018-.008-.027-.005-.009-.005-.018-.01-.027l-.013-.031a68.709 68.709 0 0 0-.027-.05l-.014-.023c-.004-.009-.013-.018-.018-.027a.078.078 0 0 0-.018-.023c-.004-.009-.013-.013-.018-.022-.004-.01-.013-.014-.018-.023-.004-.009-.013-.013-.018-.018a4.815 4.815 0 0 1-.022-.022c-.01-.005-.014-.014-.023-.019-.01-.004-.018-.013-.027-.018-.01-.004-.014-.009-.023-.013-.009-.005-.018-.01-.027-.018l-.027-.014-.027-.013-.027-.014c-.01-.004-.018-.004-.027-.009a.084.084 0 0 0-.032-.009c-.01 0-.018-.005-.023-.005-.013-.004-.022-.004-.036-.004-.005 0-.009-.005-.018-.005L5.334 4.163V2.02c0-.023 0-.046-.004-.064 0-.004 0-.009-.005-.018 0-.013-.005-.027-.005-.04-.004-.014-.004-.023-.009-.037 0-.009-.004-.013-.004-.022l-.014-.04c0-.005-.004-.014-.004-.019a.135.135 0 0 0-.018-.036c-.005-.005-.005-.014-.01-.018a.095.095 0 0 0-.017-.027c-.005-.01-.01-.014-.014-.023s-.009-.014-.014-.023c-.004-.009-.013-.018-.018-.027l-.013-.013-.027-.027-.014-.014a.197.197 0 0 0-.032-.027c-.004-.005-.013-.01-.018-.014-.009-.009-.018-.013-.027-.022a.417.417 0 0 0-.036-.023c-.004-.004-.009-.004-.013-.009l-.06-.027L1.627.048a.61.61 0 0 0-.8.326.61.61 0 0 0 .326.8l2.957 1.248v13.375c0 1.266.95 2.314 2.175 2.473-.222.37-.353.805-.353 1.266A2.467 2.467 0 0 0 8.395 22a2.47 2.47 0 0 0 2.464-2.464c0-.452-.122-.882-.339-1.244h5.49a2.43 2.43 0 0 0-.34 1.244A2.467 2.467 0 0 0 18.134 22a2.47 2.47 0 0 0 2.465-2.464 2.47 2.47 0 0 0-2.465-2.464H6.604a1.276 1.276 0 0 1-1.274-1.275v-1.655c.37.217.809.343 1.275.343Zm3.038 5.046c0 .688-.56 1.244-1.243 1.244s-1.244-.561-1.244-1.244c0-.682.56-1.243 1.244-1.243.682 0 1.243.556 1.243 1.243Zm9.74 0c0 .688-.561 1.244-1.244 1.244-.683 0-1.244-.561-1.244-1.244 0-.682.561-1.243 1.244-1.243.683 0 1.243.556 1.243 1.243Zm-.656-6.266H6.605a1.276 1.276 0 0 1-1.275-1.276V5.394l14.672 2.02v4.572c0 .71-.575 1.28-1.275 1.28Z"/>
    </g>
    
</g></symbol><symbol id="icon-tg" viewBox="0 0 35 35"><g fill="none">
    <rect width="33" height="33" x="1" y="1" stroke="currentColor" stroke-width="2" rx="4"/>
    <path fill="currentColor" fill-rule="evenodd" d="M11.305 19.851c.04.014.08.023.121.03a301.59 301.59 0 0 1 .775 1.835c.46 1.101.924 2.237 1.027 2.562.127.402.261.675.408.861.075.097.163.18.266.245a.805.805 0 0 0 .163.078l.007.002c.293.11.56.065.728.008a1.202 1.202 0 0 0 .28-.137l.004-.003 2.59-1.615 2.993 2.294a.69.69 0 0 0 .143.085c.36.156.708.211 1.036.166.326-.044.586-.181.78-.336a1.826 1.826 0 0 0 .516-.668l.009-.02.003-.008.001-.003v-.002l.001-.001a.695.695 0 0 0 .037-.122l2.731-13.773a.69.69 0 0 0 .013-.134c0-.403-.152-.787-.509-1.02-.305-.198-.646-.207-.86-.19a2.653 2.653 0 0 0-.59.12 3.184 3.184 0 0 0-.239.087l-.01.004-15.32 6.01-.003.001a1.522 1.522 0 0 0-.153.063c-.09.04-.217.105-.348.194-.208.143-.687.534-.606 1.178.064.515.416.83.631.982.118.084.23.143.311.182.038.018.117.05.15.064l.01.003 2.904.978Zm12.96-8.389-.002.001a.66.66 0 0 1-.023.01L8.9 17.49a.696.696 0 0 1-.024.01l-.008.002a1.04 1.04 0 0 0-.084.038.75.75 0 0 0 .079.038l2.88.97a.692.692 0 0 1 .148.07l9.512-5.568.009-.006.027-.015.086-.047c.066-.033.172-.083.291-.12a.991.991 0 0 1 .591-.013.783.783 0 0 1 .54.631.77.77 0 0 1 .002.39c-.063.251-.24.448-.401.598-.138.128-1.921 1.848-3.68 3.545l-2.395 2.311-.426.412 5.382 4.127a.49.49 0 0 0 .23.037.21.21 0 0 0 .107-.048c.038-.03.07-.07.095-.11h.001l2.65-13.36a1.671 1.671 0 0 0-.245.08h-.002ZM16.51 22.823 15.435 22l-.26 1.655 1.334-.832Zm-2.059-2.457 1.068-1.03 2.395-2.312.891-.86-5.976 3.499.032.075a303.699 303.699 0 0 1 1.118 2.677l.26-1.65a.684.684 0 0 1 .212-.399Z" clip-rule="evenodd"/>
</g></symbol><symbol id="icon-vk" viewBox="0 0 35 35"><g fill="none">
    <rect width="33" height="33" x="1" y="1" stroke="currentColor" stroke-width="2" rx="4"/>
    <path fill="currentColor" fill-rule="evenodd" d="M27.454 22.46a10.444 10.444 0 0 0-1.945-2.717 14.241 14.241 0 0 0-.83-.862l-.035-.034a16.98 16.98 0 0 1-.317-.316 27.244 27.244 0 0 0 2.759-4.8l.03-.069.022-.071c.099-.333.213-.966-.191-1.537-.418-.591-1.086-.698-1.534-.698h-2.06a2.046 2.046 0 0 0-2.008 1.323 16.05 16.05 0 0 1-1.655 2.998v-2.414c0-.312-.03-.834-.364-1.274-.4-.528-.978-.633-1.38-.633h-3.268a1.662 1.662 0 0 0-1.696 1.543l-.003.04v.042c0 .445.176.773.317.98.063.092.13.176.173.23l.01.012c.046.056.076.094.107.136.08.108.195.276.227.71V16.4a18.134 18.134 0 0 1-1.605-3.475l-.007-.02-.007-.02c-.112-.292-.29-.717-.649-1.043-.418-.38-.913-.486-1.364-.486h-2.09c-.455 0-1.004.107-1.414.539-.402.425-.448.934-.448 1.205v.122l.026.12a17.812 17.812 0 0 0 3.484 7.35 9.307 9.307 0 0 0 7.235 4.302l.038.002h.038c.666 0 1.36-.057 1.881-.405.704-.468.759-1.189.759-1.547V22c.18.146.405.343.679.607.331.332.595.62.822.87l.12.135h.001c.176.196.35.39.507.548.198.199.442.418.75.58.332.176.68.255 1.051.255h2.091c.44 0 1.073-.104 1.517-.62.484-.56.447-1.249.295-1.743l-.027-.089-.042-.084Zm-5.242.096c-.236-.26-.52-.57-.878-.929l-.003-.003c-1.243-1.198-1.824-1.407-2.235-1.407-.218 0-.46.025-.617.22a.709.709 0 0 0-.135.32 2.25 2.25 0 0 0-.029.406v1.88c0 .234-.038.332-.146.404-.144.096-.452.174-1.11.174a7.929 7.929 0 0 1-6.19-3.715l-.007-.011-.009-.01a16.435 16.435 0 0 1-3.249-6.808c.003-.12.03-.192.071-.236.044-.046.149-.11.417-.11h2.09c.232 0 .352.05.439.13.098.089.183.24.287.51.513 1.509 1.206 2.92 1.863 3.957.329.52.652.95.943 1.256.145.152.288.278.424.368.131.087.28.155.434.155a.652.652 0 0 0 .267-.049.48.48 0 0 0 .228-.212c.095-.172.121-.426.121-.76V14.997c-.048-.75-.274-1.172-.495-1.472a5.123 5.123 0 0 0-.137-.177l-.012-.014a2.488 2.488 0 0 1-.112-.147.357.357 0 0 1-.078-.197.287.287 0 0 1 .298-.258h3.294c.19 0 .253.046.285.089.045.06.084.183.084.443v4.152c0 .493.227.826.557.826.38 0 .654-.23 1.133-.709l.008-.008.007-.009a17.425 17.425 0 0 0 2.603-4.328l.004-.012a.67.67 0 0 1 .679-.444h2.108c.285 0 .38.073.41.116.032.046.055.144 0 .337a25.856 25.856 0 0 1-2.776 4.767l-.007.01c-.106.163-.222.342-.24.548-.017.221.079.423.246.638.122.18.374.427.63.677l.024.024c.267.262.558.546.79.82l.007.008.006.007a9.067 9.067 0 0 1 1.71 2.37c.07.24.027.362-.027.425-.064.073-.206.142-.476.142H23.62a.835.835 0 0 1-.41-.096 1.797 1.797 0 0 1-.416-.334c-.13-.131-.273-.29-.447-.483l-.135-.15Z" clip-rule="evenodd"/>
</g></symbol><symbol id="icon-wishlist" viewBox="0 0 45 45"><g fill="none">
    <g fill="currentColor" clip-path="url(#a)">
        <path d="M33.307 13.789h-9.69a.699.699 0 1 0 0 1.397h9.69a.699.699 0 1 0 0-1.397ZM33.307 21.242h-9.69a.699.699 0 1 0 0 1.398h9.69a.699.699 0 1 0 0-1.398ZM33.307 28.696h-9.69a.699.699 0 1 0 0 1.397h9.69a.699.699 0 1 0 0-1.397ZM19.891 12.298H16.91a.699.699 0 0 0-.7.699v2.981c0 .386.314.699.7.699h2.981a.699.699 0 0 0 .699-.699v-2.981a.699.699 0 0 0-.699-.699Zm-.699 2.982h-1.584v-1.584h1.584v1.584ZM19.891 19.752H16.91a.699.699 0 0 0-.7.698v2.982c0 .386.314.698.7.698h2.981a.699.699 0 0 0 .699-.698V20.45a.699.699 0 0 0-.699-.698Zm-.699 2.98h-1.584V21.15h1.584v1.584ZM19.891 27.205H16.91a.699.699 0 0 0-.7.699v2.981c0 .386.314.699.7.699h2.981a.699.699 0 0 0 .699-.699v-2.981a.699.699 0 0 0-.699-.699Zm-.699 2.981h-1.584v-1.584h1.584v1.584Z"/>
        <path d="m41.519 31.984.552.23-.553-.23-.322-.133.32.133c-1.272-.527-2.628-.386-3.783.354V11.693a.699.699 0 1 0-1.397 0v20.262a4.027 4.027 0 0 0-3.262.128c-1.64.79-2.701 2.514-2.701 4.392 0 .368.066.758.192 1.165H14.581a.7.7 0 0 1-.699-.699V4.705a.7.7 0 0 1 .699-.699h1.63V7.78c0 .385.313.698.699.698h2.981a.699.699 0 0 0 .699-.698V4.006h2.33V7.78c0 .385.312.698.698.698h2.981a.699.699 0 0 0 .699-.698V4.006h2.33V7.78c0 .385.312.698.698.698h2.981a.699.699 0 0 0 .699-.698V4.006h1.63a.7.7 0 0 1 .7.699v3.074a.699.699 0 1 0 1.397 0V4.705c0-1.156-.94-2.096-2.097-2.096h-1.63V.699A.699.699 0 0 0 33.307 0h-2.981a.699.699 0 0 0-.699.699v1.91h-2.33V.699A.699.699 0 0 0 26.6 0h-2.981a.699.699 0 0 0-.699.699v1.91h-2.33V.699A.699.699 0 0 0 19.892 0H16.91a.699.699 0 0 0-.699.699v1.91h-1.63c-1.156 0-2.097.94-2.097 2.096v32.236c0 1.156.94 2.096 2.097 2.096h16.623c1.724 2.898 5.624 5.71 5.796 5.833a.699.699 0 0 0 .813 0 31.165 31.165 0 0 0 3.25-2.747c2.241-2.186 3.378-4.087 3.378-5.648 0-1.962-1.174-3.766-2.922-4.49ZM31.025 3.307v-1.91h1.584v5.684h-1.584V3.307Zm-6.708 0v-1.91H25.9v5.684h-1.584V3.307Zm-6.708 0v-1.91h1.584v5.684h-1.584V3.307Zm19.8 40.124c-1.076-.824-4.009-3.196-5.177-5.417-.306-.583-.462-1.1-.462-1.539 0-1.345.75-2.574 1.91-3.132a2.718 2.718 0 0 1 2.465.06c.408.217.777.78 1.262.79.444.01.747-.48 1.1-.682.784-.448 1.612-.594 2.476-.236 1.232.51 2.06 1.797 2.06 3.2 0 2.228-3.747 5.526-5.633 6.956ZM41.196 31.85s-.001 0 0 0Z"/>
        <path d="M42.071 32.213c.01.004.009.004 0 0ZM7.22 0C5.3 0 3.72 1.477 3.555 3.354h-.9c-1.156 0-2.096.94-2.096 2.096v11.646a.699.699 0 1 0 1.397 0V5.45a.7.7 0 0 1 .699-.698h.885V24.922a.699.699 0 1 0 1.397 0v-7.127h4.566V37.64H4.937v-9.177a.699.699 0 1 0-1.397 0v9.876c0 .158.054.312.153.436l2.828 3.535v1.991a.699.699 0 1 0 1.398 0v-1.99l2.828-3.536a.7.7 0 0 0 .153-.436V3.68C10.9 1.65 9.25 0 7.22 0Zm0 40.947-1.527-1.91h3.055l-1.528 1.91Zm2.283-24.55H4.937V3.68A2.285 2.285 0 0 1 7.22 1.398 2.285 2.285 0 0 1 9.503 3.68v12.717Z"/>
    </g>
    
</g></symbol></svg>